# xmcd
#
# Track frame offsets: 
#        150
#        17532
#        36804
#        48779
#        67351
#
# Disc length: 1168 seconds
#
# Revision: 0
# Processed by: cddbd v1.5.2PL0 Copyright (c) Steve Scherf et al.
# Submitted via: ExactAudioCopy v0.99pb4
#
DISCID=3b048e05
DTITLE=State Of Undress - Christmas 'Round Ours...
DYEAR=2007
DGENRE=Christmas/Holiday
TTITLE0=Christmas 'Round Ours (Single Mix)
TTITLE1=Fairytale Of New York
TTITLE2=The Christmas Truce
TTITLE3=Take Me To The Leader
TTITLE4=Christmas 'Round Ours (Extended Mix)
EXTD=
EXTT0=
EXTT1=
EXTT2=
EXTT3=
EXTT4=
PLAYORDER=
